<?xml version="1.0" standalone="no"?>
<!DOCTYPE svg PUBLIC "-//W3C//DTD SVG 20010904//EN"
 "http://www.w3.org/TR/2001/REC-SVG-20010904/DTD/svg10.dtd">
<svg version="1.0" xmlns="http://www.w3.org/2000/svg"
 width="420.000000pt" height="420.000000pt" viewBox="0 0 420.000000 420.000000"
 preserveAspectRatio="xMidYMid meet">
<metadata>
Created by potrace 1.14, written by Peter Selinger 2001-2017
</metadata>
<g transform="translate(0.000000,420.000000) scale(0.100000,-0.100000)"
fill="#000000" stroke="none">
<path d="M805 3707 c-79 -35 -95 -46 -95 -67 0 -12 -9 -22 -24 -26 -14 -3 -27
-12 -30 -20 -3 -8 -12 -14 -21 -14 -8 0 -15 -5 -15 -11 0 -5 -4 -8 -9 -5 -9 6
-61 -48 -61 -64 0 -5 -33 -42 -74 -83 -41 -41 -81 -90 -90 -108 -9 -19 -33
-53 -55 -76 -49 -54 -82 -141 -81 -213 1 -30 0 -71 -1 -90 -3 -44 9 -111 24
-128 6 -8 11 -55 12 -105 3 -141 32 -201 107 -216 23 -5 34 -13 36 -28 2 -13
17 -26 43 -36 40 -16 41 -17 34 -54 -5 -33 -2 -42 22 -64 15 -15 40 -29 56
-33 15 -3 27 -11 27 -17 0 -7 -10 -9 -26 -5 -23 6 -26 4 -21 -13 3 -12 1 -22
-4 -22 -5 -1 -14 -2 -21 -3 -14 -1 -22 -22 -10 -30 15 -9 1 -66 -19 -77 -16
-8 -18 -19 -14 -80 4 -75 18 -107 64 -148 14 -13 21 -20 14 -17 -6 3 -19 -1
-28 -11 -16 -16 -18 -15 -34 5 -10 14 -30 23 -56 26 -22 2 -60 11 -84 20 -50
18 -82 21 -36 3 51 -20 73 -36 80 -58 7 -23 -7 -39 -35 -39 -12 0 -12 2 -1 9
23 15 -6 24 -83 26 -39 1 -84 6 -100 10 l-29 8 23 -23 c22 -22 22 -24 5 -37
-11 -7 -26 -13 -35 -13 -9 0 -25 -7 -36 -15 -17 -13 -14 -14 39 -15 68 0 76
-17 22 -50 -45 -28 -45 -33 0 -14 47 19 102 27 109 15 7 -10 -31 -51 -48 -51
-5 0 -7 -2 -5 -5 3 -2 29 4 57 15 61 23 82 25 106 7 16 -11 17 -17 7 -36 -7
-12 -27 -31 -44 -43 -18 -11 -23 -17 -12 -13 38 13 60 17 125 20 80 4 78 3 60
15 -21 13 -5 24 25 16 26 -7 35 -41 13 -49 -7 -2 -11 -7 -8 -10 4 -4 28 5 55
18 26 14 54 25 61 25 7 0 15 6 17 13 4 9 6 9 6 0 1 -9 8 -10 26 -3 28 11 55 4
55 -14 0 -6 -30 -31 -66 -56 -36 -24 -72 -56 -79 -70 -28 -51 -92 -100 -175
-135 -52 -22 -93 -46 -112 -67 -30 -34 -44 -70 -34 -86 3 -5 -1 -15 -9 -22
-22 -18 -18 -55 9 -87 25 -30 39 -75 41 -138 2 -50 15 -121 28 -157 4 -10 9
-25 12 -33 12 -39 53 21 49 73 -1 12 -2 33 -3 47 -1 17 -5 23 -16 19 -12 -5
-15 4 -15 45 0 39 5 55 22 71 12 11 26 20 30 20 17 0 26 45 12 65 -7 11 -10
32 -7 47 5 26 19 34 78 44 17 3 52 14 79 25 27 11 57 18 67 16 11 -3 23 2 29
11 5 10 10 13 10 8 0 -4 11 -1 25 8 14 9 25 14 25 10 0 -4 7 -1 15 6 9 7 18
10 22 6 4 -3 -1 -12 -10 -19 -10 -6 -19 -22 -22 -34 -6 -34 -37 -83 -52 -83
-8 0 -16 -7 -19 -15 -4 -8 -11 -15 -16 -15 -5 0 -22 -9 -37 -19 -15 -11 -35
-19 -46 -18 -12 1 -20 -7 -25 -23 -6 -23 -6 -46 3 -177 2 -22 10 -49 17 -59
13 -16 13 -17 -1 -12 -16 6 -20 -16 -6 -39 4 -7 10 -27 13 -45 2 -18 8 -49 13
-68 7 -30 9 -32 16 -15 21 58 63 132 96 169 20 22 42 59 50 80 8 21 24 45 37
54 25 16 27 36 8 71 -7 13 -11 32 -9 42 4 15 14 17 73 12 l69 -5 48 49 c26 26
90 93 141 148 86 93 93 103 88 134 l-4 35 25 -33 c22 -28 30 -32 56 -27 26 5
28 4 16 -10 -7 -9 -29 -23 -48 -32 -20 -10 -36 -22 -36 -27 0 -21 -19 -37 -68
-60 -61 -28 -73 -38 -149 -126 -53 -60 -58 -71 -59 -115 -1 -40 -3 -43 -8 -20
l-6 30 -27 -33 c-16 -18 -28 -38 -28 -46 0 -7 12 -44 26 -81 23 -60 26 -85 27
-192 0 -67 3 -120 5 -117 3 3 14 -2 24 -12 17 -15 18 -15 18 1 0 10 -5 14 -12
10 -8 -5 -9 2 -4 27 4 19 9 51 11 71 6 52 28 90 76 132 31 26 43 44 45 68 8
84 21 118 47 119 12 0 16 3 10 6 -10 3 -8 9 4 21 11 12 35 17 77 18 34 1 66 2
73 3 21 2 120 107 126 133 9 33 28 40 68 26 39 -13 69 1 88 43 7 16 18 29 26
29 22 0 38 30 37 69 -2 40 17 67 40 58 7 -2 21 0 30 4 10 6 19 5 23 -1 3 -5 2
-10 -3 -10 -24 0 -62 -52 -77 -106 -20 -73 -28 -83 -87 -112 -26 -13 -54 -32
-61 -42 -7 -10 -25 -24 -39 -30 -14 -7 -37 -33 -49 -57 -13 -25 -31 -51 -41
-57 -23 -14 -22 -41 2 -91 10 -22 16 -43 14 -47 -12 -19 -20 -98 -11 -101 7
-2 7 -9 2 -17 -10 -17 -14 -160 -4 -154 4 2 9 -3 13 -11 3 -8 10 -15 16 -15 7
0 5 6 -4 15 -10 10 -12 23 -7 43 4 15 6 38 5 52 -3 28 14 80 27 80 4 0 15 27
25 59 14 51 21 62 53 77 56 29 69 46 74 105 5 48 10 57 54 96 26 23 85 63 131
88 45 25 90 53 100 63 42 43 43 47 27 91 -8 24 -13 52 -11 64 3 12 5 26 5 31
1 4 12 1 26 -8 14 -9 31 -16 38 -15 6 1 26 -3 42 -10 17 -7 48 -14 70 -15 34
-2 47 3 85 36 l45 40 17 -22 c17 -21 17 -23 -5 -39 -12 -9 -31 -21 -42 -27
-11 -6 -20 -17 -19 -25 1 -30 37 -86 68 -107 35 -24 73 -91 106 -186 11 -33
27 -70 35 -83 9 -12 17 -46 19 -75 2 -29 4 -56 5 -60 0 -4 26 -24 57 -44 l56
-38 -4 -74 c-3 -48 -10 -77 -19 -83 -11 -7 -11 -9 3 -9 12 0 19 12 24 47 4 27
10 55 13 65 7 18 50 74 93 119 42 44 45 73 13 115 -20 26 -28 49 -31 95 -5 72
-13 89 -73 152 -25 26 -50 55 -54 64 -5 8 -17 23 -26 33 -32 36 -40 48 -35 53
3 2 -6 24 -19 49 -25 47 -21 90 9 102 19 7 36 -36 28 -69 -4 -16 1 -36 15 -58
12 -19 21 -41 21 -49 0 -22 59 -92 105 -126 22 -16 58 -32 78 -36 21 -4 41
-14 44 -22 3 -7 12 -14 20 -14 14 0 14 -3 0 -22 -8 -13 -20 -22 -26 -20 -14 3
-15 -15 -1 -20 5 -2 27 -30 49 -63 28 -43 36 -64 29 -73 -26 -31 17 -165 67
-212 22 -21 22 -22 6 -84 -9 -35 -22 -71 -30 -79 -15 -18 -7 -37 16 -37 20 0
122 106 139 145 7 17 35 51 63 77 28 27 53 59 57 73 8 34 -67 188 -107 216
-16 11 -36 33 -44 49 -16 32 -20 74 -6 66 15 -10 20 20 14 74 -5 41 -9 50 -22
45 -13 -5 -14 -4 -3 6 20 21 14 58 -13 85 -14 14 -25 30 -25 37 1 7 16 -6 35
-27 25 -29 43 -39 64 -39 22 0 27 -4 24 -18 -3 -10 2 -28 11 -41 9 -12 16 -29
16 -37 0 -8 8 -23 18 -34 9 -10 18 -32 18 -48 3 -55 4 -58 19 -53 8 4 15 2 15
-3 0 -6 9 -20 19 -32 20 -23 37 -104 25 -123 -5 -7 -3 -8 6 -3 10 6 11 4 5
-11 -4 -10 -7 -27 -7 -37 1 -27 39 -74 64 -80 35 -9 56 -54 51 -109 -3 -30 0
-48 6 -48 6 0 10 3 9 8 -3 14 15 87 24 99 6 7 12 41 14 74 1 34 7 65 12 68 10
6 15 43 13 94 -1 15 -9 35 -20 46 -12 12 -20 39 -24 82 -3 47 -15 82 -40 131
-34 64 -35 68 -22 105 22 59 19 81 -14 97 -32 17 -42 35 -34 65 4 15 12 20 34
18 16 -1 29 -7 29 -13 0 -7 23 -29 50 -50 28 -21 50 -44 50 -51 0 -7 9 -21 21
-31 52 -43 61 -137 25 -254 -16 -50 -12 -104 9 -128 7 -8 15 -22 19 -30 3 -8
4 -5 2 8 -2 12 -3 22 -1 22 2 0 26 -12 54 -26 34 -18 75 -29 124 -34 41 -4 79
-10 86 -14 15 -10 46 -73 55 -111 11 -51 26 -82 40 -82 8 0 11 9 8 23 -2 12 1
30 6 40 7 13 6 27 -6 49 -9 16 -17 35 -18 40 -1 6 -5 28 -8 50 -4 22 -13 60
-20 85 -7 25 -19 64 -25 87 -16 58 -53 78 -114 63 -23 -7 -53 -19 -67 -28 -24
-15 -24 -15 -10 2 10 13 15 47 16 120 0 56 6 111 12 123 16 30 15 58 -4 94
-19 37 -11 88 13 85 9 -2 17 -11 19 -20 1 -10 5 -20 8 -23 8 -8 27 8 21 18 -4
5 -4 9 -1 9 3 0 12 -12 21 -27 15 -27 16 -27 9 -3 -3 14 -13 33 -21 42 -8 9
-12 21 -9 26 3 6 -1 13 -10 16 -25 10 -27 7 -13 -11 13 -16 12 -17 -3 -4 -21
16 -13 35 11 26 9 -4 25 -9 36 -11 11 -2 28 -15 38 -29 30 -40 38 -29 18 23
-23 57 -16 77 21 63 22 -8 43 -35 40 -52 0 -3 8 -11 19 -18 20 -12 20 -10 14
34 -5 29 -3 50 4 59 9 11 6 15 -14 20 -14 4 -25 11 -25 17 0 6 3 9 8 7 47 -23
61 -32 56 -39 -3 -5 2 -6 10 -3 9 3 16 2 16 -4 0 -11 68 -37 76 -29 3 2 -15
14 -38 25 -47 23 -78 45 -78 56 0 10 49 7 73 -5 21 -10 21 -10 3 5 -11 9 -26
16 -33 16 -7 0 -13 4 -13 9 0 12 58 19 68 9 5 -5 48 -10 95 -10 55 -1 84 -5
80 -11 -3 -6 -1 -7 6 -3 6 4 9 12 6 17 -4 5 -1 9 4 9 6 0 11 9 11 21 0 11 -4
17 -10 14 -6 -3 -10 -1 -10 4 0 6 5 11 11 11 5 0 7 5 4 10 -3 5 -14 10 -23 10
-27 0 -62 29 -56 45 4 8 16 15 28 15 20 1 20 1 3 11 -13 8 -31 8 -58 1 -24 -6
-41 -6 -45 0 -3 5 -12 4 -20 -3 -12 -10 -12 -14 -2 -20 16 -10 -2 -12 -26 -3
-17 7 -22 24 -6 24 9 0 79 44 90 57 3 4 -21 -8 -52 -26 -47 -26 -61 -30 -78
-21 -11 6 -17 16 -14 22 4 7 3 8 -4 4 -15 -9 -15 -12 4 -30 14 -15 13 -16 -11
-16 -19 0 -26 4 -22 14 4 11 -2 12 -31 5 -20 -4 -39 -6 -41 -3 -3 2 3 19 14
37 l18 32 -27 -25 c-21 -19 -30 -22 -44 -14 -27 18 -25 37 10 74 34 34 21 33
-19 -3 -29 -26 -73 -31 -73 -8 0 9 6 23 13 30 10 11 8 11 -10 2 -12 -6 -25
-16 -28 -21 -10 -16 -55 -12 -62 6 -3 8 4 30 17 47 l23 32 -34 -32 c-72 -67
-126 -61 -90 11 l19 37 -39 -36 c-44 -39 -43 -39 -70 -25 -12 7 -19 21 -19 38
0 32 7 42 40 65 13 9 20 17 14 17 -6 0 -32 -18 -57 -40 -25 -22 -49 -40 -55
-40 -5 0 -21 -11 -36 -25 -16 -15 -35 -24 -44 -21 -24 8 -46 -9 -36 -25 6 -12
5 -12 -9 0 -15 12 -21 9 -19 -10 1 -4 -7 -9 -18 -12 -32 -8 -19 30 23 64 24
20 35 36 32 49 -2 11 0 21 6 21 5 1 13 2 18 3 36 4 35 46 -2 64 -12 6 -16 11
-9 11 7 1 11 5 7 10 -3 6 6 6 24 1 25 -7 35 -4 67 25 21 19 41 32 45 29 4 -2
10 0 14 6 4 6 11 8 16 5 5 -4 9 -3 9 2 0 4 19 14 42 21 51 16 68 29 68 51 0
10 18 26 45 39 39 19 46 27 60 74 9 29 18 69 21 88 3 19 16 57 29 84 20 43 22
53 11 75 -7 14 -11 37 -9 51 8 63 0 251 -13 271 -3 5 -1 9 4 9 6 0 13 -11 16
-25 4 -14 11 -25 17 -25 6 0 2 16 -10 36 -12 19 -21 41 -21 48 0 18 -24 66
-32 66 -5 0 -8 17 -8 38 0 20 -7 57 -15 82 -13 39 -15 40 -10 10 8 -51 -11
-24 -23 33 -5 26 -7 47 -3 47 3 0 7 28 7 63 1 34 0 53 -3 42 -3 -11 -9 -24
-14 -30 -5 -5 -9 -18 -9 -30 -1 -18 -2 -18 -10 -3 -14 23 -8 89 7 84 20 -8 23
6 5 21 -9 8 -11 11 -3 7 8 -4 12 -3 8 3 -6 10 -42 11 -52 1 -3 -3 0 -17 6 -32
10 -20 10 -29 1 -38 -7 -7 -12 -26 -12 -43 0 -57 -30 -146 -68 -203 -21 -31
-44 -77 -52 -102 -7 -25 -22 -62 -33 -84 -20 -42 -16 -99 6 -77 20 20 29 12
13 -11 -22 -30 -21 -62 0 -54 15 6 16 -1 11 -60 -3 -37 -11 -72 -18 -78 -9 -8
-10 -8 -5 2 4 6 5 12 3 12 -9 0 -47 -81 -47 -100 0 -16 -7 -20 -32 -20 -18 0
-40 5 -48 11 -12 9 -10 10 8 6 30 -7 60 25 68 72 4 20 13 45 21 57 7 11 11 23
8 25 -2 3 -7 25 -10 49 -9 73 -22 96 -64 109 -21 6 -46 11 -56 11 -15 0 -16 2
-4 16 8 10 15 12 17 5 7 -20 51 -12 67 13 18 27 11 67 -26 154 -34 78 -26 126
41 254 27 49 26 68 -2 65 -24 -2 -49 -27 -41 -40 2 -4 0 -6 -6 -5 -11 3 -111
-130 -111 -149 0 -7 -28 -36 -62 -64 -88 -73 -128 -118 -115 -132 1 -1 -22
-26 -50 -55 -47 -47 -58 -68 -54 -95 1 -4 -10 -25 -24 -47 -25 -40 -44 -102
-39 -132 1 -11 -3 -15 -12 -11 -9 3 -14 -2 -15 -13 0 -11 -3 -14 -6 -6 -2 6
-9 12 -15 12 -6 0 -7 -7 -4 -16 3 -8 2 -13 -3 -10 -5 3 -9 -19 -10 -49 0 -41
3 -55 14 -55 7 0 16 12 18 28 3 19 4 17 4 -10 -1 -20 -4 -35 -9 -32 -4 3 -4
-19 -1 -48 3 -29 9 -54 13 -56 4 -1 5 -13 3 -26 -3 -14 0 -32 6 -43 8 -14 11
-14 11 -3 1 8 12 -12 25 -44 14 -33 24 -60 22 -61 -1 0 -15 -6 -30 -13 -27
-12 -28 -15 -22 -55 4 -23 14 -54 21 -69 18 -35 18 -49 -1 -42 -8 4 -15 14
-15 24 0 9 -10 25 -21 36 -12 10 -35 43 -51 72 -17 28 -36 52 -44 52 -8 0 -13
-3 -13 -7 8 -52 -18 -40 -47 22 -15 30 -29 55 -33 55 -12 0 -33 -17 -31 -26 2
-16 -30 -16 -46 0 -19 20 -33 20 -40 1 -9 -23 -33 -18 -64 14 -41 40 -60 46
-60 17 0 -12 -3 -26 -6 -29 -8 -7 -36 7 -58 29 -15 14 -17 14 -22 0 -3 -9 -10
-16 -16 -16 -9 0 -6 35 11 109 7 33 5 43 -11 60 -23 26 -29 26 -61 1 -28 -23
-27 -40 5 -76 10 -11 20 -31 23 -43 2 -13 7 -32 11 -43 4 -13 -6 -7 -30 19
-34 36 -36 37 -42 16 -11 -39 -80 -34 -91 7 -7 26 -11 25 -39 -5 -18 -20 -28
-24 -41 -17 -22 11 -46 4 -37 -10 4 -7 2 -8 -4 -4 -9 5 -9 13 -1 29 9 18 9 20
-2 10 -27 -26 -29 -12 -4 35 l25 47 -25 23 c-25 21 -58 24 -85 7 -16 -10 -11
-47 9 -69 28 -30 37 -74 18 -82 -9 -3 -25 -1 -36 6 -16 8 -21 8 -22 -2 0 -7
-4 -4 -9 7 -8 20 -9 19 -9 -1 -1 -12 -8 -27 -17 -35 -13 -10 -20 -10 -45 5
-25 15 -29 15 -29 2 0 -9 -7 -16 -15 -16 -14 0 -20 -24 -16 -57 1 -7 -3 -13
-10 -13 -7 0 -9 10 -6 29 6 29 6 29 -26 20 -17 -5 -33 -9 -35 -9 -2 0 -1 -4 2
-9 3 -5 -2 -8 -11 -7 -9 0 -22 -10 -29 -22 -21 -41 -31 -46 -45 -21 -20 40
-31 39 -53 -4 -14 -29 -22 -37 -24 -24 -4 22 -15 22 -37 -3 -9 -10 -32 -24
-50 -30 -27 -9 -32 -15 -28 -33 3 -12 10 -28 16 -34 6 -9 6 -13 0 -13 -6 0
-15 10 -21 23 -9 20 -11 20 -11 3 -1 -11 -4 -16 -8 -13 -3 4 -19 -16 -35 -43
-30 -53 -39 -58 -57 -37 -8 10 -7 19 4 33 24 31 19 54 -12 55 -27 0 -27 1 -5
9 12 5 27 22 34 37 6 15 25 42 41 59 43 48 59 101 41 143 -13 32 -12 38 17 98
25 51 33 84 40 161 8 94 13 130 23 181 7 29 -16 86 -40 99 -16 9 -19 26 -21
130 -1 66 -7 139 -13 163 -11 40 -72 140 -91 147 -4 2 -5 10 -2 19 4 11 2 14
-5 9 -7 -4 -12 -1 -12 7 0 7 -22 38 -49 68 -28 30 -55 66 -62 82 -6 15 -15 27
-20 27 -4 0 -23 14 -41 30 -33 31 -58 39 -58 19 0 -8 -5 -8 -15 1 -19 15 -20
-3 -2 -22 27 -28 43 -64 41 -88 -2 -14 -6 -52 -10 -85 -3 -33 -10 -64 -15 -69
-5 -6 -9 -20 -9 -32 0 -12 -7 -38 -15 -58 -8 -20 -13 -36 -9 -36 3 0 -10 -16
-30 -36 -20 -20 -36 -41 -36 -46 0 -6 -6 -8 -13 -5 -10 4 -12 -5 -10 -36 3
-43 -3 -48 -10 -7 -9 42 -18 58 -38 63 -10 3 -19 12 -19 21 0 9 -7 28 -16 41
-16 24 -11 31 19 26 4 0 7 3 7 9 0 5 8 10 18 10 26 1 45 20 77 74 24 41 29 60
28 108 -1 33 -9 73 -17 89 -16 33 -10 60 26 108 10 13 18 31 18 41 0 10 9 29
20 43 17 22 18 26 4 31 -32 12 -101 5 -149 -17z m2415 -406 c-28 -56 -35 -52
-8 4 12 24 23 43 26 41 2 -2 -6 -22 -18 -45z m-2384 -390 c2 -50 14 -144 20
-154 5 -9 4 -9 -5 -1 -10 9 -25 69 -35 145 -2 15 2 26 8 26 7 0 12 -7 12 -16z
m1905 -304 c-10 -9 -11 -8 -5 6 3 10 9 15 12 12 3 -3 0 -11 -7 -18z m-1464
-559 c-3 -8 -6 -5 -6 6 -1 11 2 17 5 13 3 -3 4 -12 1 -19z m1740 -194 c-3 -3
-12 -4 -19 -1 -8 3 -5 6 6 6 11 1 17 -2 13 -5z m875 -41 c-6 -2 -10 -9 -6 -14
3 -5 0 -9 -5 -9 -12 0 -14 13 -4 23 3 4 11 7 17 6 6 0 5 -3 -2 -6z m-1082 -67
c0 -3 -4 -8 -10 -11 -5 -3 -10 -1 -10 4 0 6 5 11 10 11 6 0 10 -2 10 -4z
m-1765 -312 c-11 -8 -27 -20 -35 -27 -8 -7 -44 -34 -80 -62 l-65 -49 50 55
c28 30 68 63 90 75 47 25 68 29 40 8z m655 -265 c-7 -11 -14 -18 -17 -15 -3 3
0 12 7 21 18 21 23 19 10 -6z m-1301 -256 c1 -26 -1 -45 -4 -41 -10 10 -17
100 -7 94 4 -3 9 -26 11 -53z m13 -88 c3 -13 2 -22 -2 -20 -4 3 -10 16 -12 30
-3 13 -2 22 2 20 4 -3 10 -16 12 -30z m13 -45 c3 -5 1 -10 -4 -10 -6 0 -11 5
-11 10 0 6 2 10 4 10 3 0 8 -4 11 -10z"/>
<path d="M115 1670 c-16 -7 -17 -9 -3 -9 9 -1 20 4 23 9 7 11 7 11 -20 0z"/>
<path d="M3940 1640 c8 -5 22 -10 30 -10 13 0 13 1 0 10 -8 5 -22 10 -30 10
-13 0 -13 -1 0 -10z"/>
</g>
</svg>
